<svg width="1920" height="1080" viewBox="0 0 1920 1080" fill="none" xmlns="http://www.w3.org/2000/svg">
<g clip-path="url(#clip0_11_2)">
<rect width="1920" height="1080" fill="#131313"/>
<g filter="url(#filter0_f_11_2)">
<path d="M2135.3 714.975L1905.33 521.786L1902.07 -10.6883L1715.77 -215.849" stroke="url(#paint0_linear_11_2)" stroke-opacity="0.2" stroke-width="238"/>
</g>
<path d="M901.491 102.03C900.108 102.03 898.985 100.906 898.985 99.515C898.985 98.1235 900.108 97 901.491 97C902.874 97 903.997 98.1235 903.997 99.515C903.997 100.906 902.874 102.03 901.491 102.03Z" fill="white" fill-opacity="0.1"/>
<path d="M901.491 212.274C900.108 212.274 898.985 211.151 898.985 209.759C898.985 208.368 900.108 207.244 901.491 207.244C902.874 207.244 903.997 208.368 903.997 209.759C903.997 211.151 902.874 212.274 901.491 212.274Z" fill="white" fill-opacity="0.1"/>
<path d="M901.491 322.518C900.108 322.518 898.985 321.395 898.985 320.003C898.985 318.612 900.108 317.488 901.491 317.488C902.874 317.488 903.997 318.612 903.997 320.003C903.997 321.395 902.874 322.518 901.491 322.518Z" fill="white" fill-opacity="0.1"/>
<path d="M901.491 432.771C900.108 432.771 898.985 431.647 898.985 430.256C898.985 428.864 900.108 427.741 901.491 427.741C902.874 427.741 903.997 428.864 903.997 430.256C903.997 431.647 902.874 432.771 901.491 432.771Z" fill="white" fill-opacity="0.1"/>
<path d="M901.491 543.015C900.108 543.015 898.985 541.891 898.985 540.5C898.985 539.108 900.108 537.985 901.491 537.985C902.874 537.985 903.997 539.108 903.997 540.5C903.997 541.891 902.874 543.015 901.491 543.015Z" fill="white" fill-opacity="0.1"/>
<path d="M901.491 653.259C900.108 653.259 898.985 652.136 898.985 650.744C898.985 649.353 900.108 648.229 901.491 648.229C902.874 648.229 903.997 649.353 903.997 650.744C903.997 652.136 902.874 653.259 901.491 653.259Z" fill="white" fill-opacity="0.1"/>
<path d="M901.491 763.503C900.108 763.503 898.985 762.38 898.985 760.988C898.985 759.597 900.108 758.473 901.491 758.473C902.874 758.473 903.997 759.597 903.997 760.988C903.997 762.38 902.874 763.503 901.491 763.503Z" fill="white" fill-opacity="0.1"/>
<path d="M901.491 873.756C900.108 873.756 898.985 872.632 898.985 871.241C898.985 869.85 900.108 868.726 901.491 868.726C902.874 868.726 903.997 869.85 903.997 871.241C903.997 872.632 902.874 873.756 901.491 873.756Z" fill="white" fill-opacity="0.1"/>
<path d="M901.491 984C900.108 984 898.985 982.877 898.985 981.485C898.985 980.094 900.108 978.97 901.491 978.97C902.874 978.97 903.997 980.094 903.997 981.485C903.997 982.877 902.874 984 901.491 984Z" fill="white" fill-opacity="0.1"/>
<path d="M791.662 102.03C790.279 102.03 789.155 100.906 789.155 99.515C789.155 98.1235 790.279 97 791.662 97C793.044 97 794.168 98.1235 794.168 99.515C794.168 100.906 793.044 102.03 791.662 102.03Z" fill="white" fill-opacity="0.1"/>
<path d="M791.662 212.274C790.279 212.274 789.155 211.151 789.155 209.759C789.155 208.368 790.279 207.244 791.662 207.244C793.044 207.244 794.168 208.368 794.168 209.759C794.168 211.151 793.044 212.274 791.662 212.274Z" fill="white" fill-opacity="0.1"/>
<path d="M791.662 322.518C790.279 322.518 789.155 321.395 789.155 320.003C789.155 318.612 790.279 317.488 791.662 317.488C793.044 317.488 794.168 318.612 794.168 320.003C794.168 321.395 793.044 322.518 791.662 322.518Z" fill="white" fill-opacity="0.1"/>
<path d="M791.662 432.771C790.279 432.771 789.155 431.647 789.155 430.256C789.155 428.864 790.279 427.741 791.662 427.741C793.044 427.741 794.168 428.864 794.168 430.256C794.168 431.647 793.044 432.771 791.662 432.771Z" fill="white" fill-opacity="0.1"/>
<path d="M791.662 543.015C790.279 543.015 789.155 541.891 789.155 540.5C789.155 539.108 790.279 537.985 791.662 537.985C793.044 537.985 794.168 539.108 794.168 540.5C794.168 541.891 793.044 543.015 791.662 543.015Z" fill="white" fill-opacity="0.1"/>
<path d="M791.662 653.259C790.279 653.259 789.155 652.136 789.155 650.744C789.155 649.353 790.279 648.229 791.662 648.229C793.044 648.229 794.168 649.353 794.168 650.744C794.168 652.136 793.044 653.259 791.662 653.259Z" fill="white" fill-opacity="0.1"/>
<path d="M791.662 763.503C790.279 763.503 789.155 762.38 789.155 760.988C789.155 759.597 790.279 758.473 791.662 758.473C793.044 758.473 794.168 759.597 794.168 760.988C794.168 762.38 793.044 763.503 791.662 763.503Z" fill="white" fill-opacity="0.1"/>
<path d="M791.662 873.756C790.279 873.756 789.155 872.632 789.155 871.241C789.155 869.849 790.279 868.726 791.662 868.726C793.044 868.726 794.168 869.849 794.168 871.241C794.168 872.632 793.044 873.756 791.662 873.756Z" fill="white" fill-opacity="0.1"/>
<path d="M791.662 984C790.279 984 789.155 982.876 789.155 981.485C789.155 980.093 790.279 978.97 791.662 978.97C793.044 978.97 794.168 980.093 794.168 981.485C794.168 982.876 793.044 984 791.662 984Z" fill="white" fill-opacity="0.1"/>
<path d="M681.833 102.03C680.45 102.03 679.326 100.906 679.326 99.515C679.326 98.1235 680.45 97 681.833 97C683.215 97 684.339 98.1235 684.339 99.515C684.339 100.906 683.215 102.03 681.833 102.03Z" fill="white" fill-opacity="0.1"/>
<path d="M681.832 212.274C680.449 212.274 679.326 211.151 679.326 209.759C679.326 208.368 680.449 207.244 681.832 207.244C683.215 207.244 684.339 208.368 684.339 209.759C684.339 211.151 683.215 212.274 681.832 212.274Z" fill="white" fill-opacity="0.1"/>
<path d="M681.832 322.518C680.449 322.518 679.326 321.395 679.326 320.003C679.326 318.612 680.449 317.488 681.832 317.488C683.215 317.488 684.339 318.612 684.339 320.003C684.339 321.395 683.215 322.518 681.832 322.518Z" fill="white" fill-opacity="0.1"/>
<path d="M681.832 432.771C680.449 432.771 679.326 431.647 679.326 430.256C679.326 428.864 680.449 427.741 681.832 427.741C683.215 427.741 684.339 428.864 684.339 430.256C684.339 431.647 683.215 432.771 681.832 432.771Z" fill="white" fill-opacity="0.1"/>
<path d="M681.832 543.015C680.449 543.015 679.326 541.891 679.326 540.5C679.326 539.108 680.449 537.985 681.832 537.985C683.215 537.985 684.339 539.108 684.339 540.5C684.339 541.891 683.215 543.015 681.832 543.015Z" fill="white" fill-opacity="0.1"/>
<path d="M681.832 653.259C680.449 653.259 679.326 652.136 679.326 650.744C679.326 649.353 680.449 648.229 681.832 648.229C683.215 648.229 684.339 649.353 684.339 650.744C684.339 652.136 683.215 653.259 681.832 653.259Z" fill="white" fill-opacity="0.1"/>
<path d="M681.832 763.503C680.449 763.503 679.326 762.38 679.326 760.988C679.326 759.597 680.449 758.473 681.832 758.473C683.215 758.473 684.339 759.597 684.339 760.988C684.339 762.38 683.215 763.503 681.832 763.503Z" fill="white" fill-opacity="0.1"/>
<path d="M681.832 873.756C680.449 873.756 679.326 872.632 679.326 871.241C679.326 869.849 680.449 868.726 681.832 868.726C683.215 868.726 684.339 869.849 684.339 871.241C684.339 872.632 683.215 873.756 681.832 873.756Z" fill="white" fill-opacity="0.1"/>
<path d="M681.832 984C680.449 984 679.326 982.876 679.326 981.485C679.326 980.093 680.449 978.97 681.832 978.97C683.215 978.97 684.339 980.093 684.339 981.485C684.339 982.876 683.215 984 681.832 984Z" fill="white" fill-opacity="0.1"/>
<path d="M572.003 102.03C570.62 102.03 569.497 100.906 569.497 99.515C569.497 98.1235 570.62 97 572.003 97C573.386 97 574.51 98.1235 574.51 99.515C574.51 100.906 573.386 102.03 572.003 102.03Z" fill="white" fill-opacity="0.1"/>
<path d="M572.003 212.274C570.62 212.274 569.497 211.151 569.497 209.759C569.497 208.368 570.62 207.244 572.003 207.244C573.386 207.244 574.51 208.368 574.51 209.759C574.51 211.151 573.386 212.274 572.003 212.274Z" fill="white" fill-opacity="0.1"/>
<path d="M572.003 322.518C570.62 322.518 569.497 321.395 569.497 320.003C569.497 318.612 570.62 317.488 572.003 317.488C573.386 317.488 574.51 318.612 574.51 320.003C574.51 321.395 573.386 322.518 572.003 322.518Z" fill="white" fill-opacity="0.1"/>
<path d="M572.003 432.771C570.62 432.771 569.497 431.647 569.497 430.256C569.497 428.864 570.62 427.741 572.003 427.741C573.386 427.741 574.51 428.864 574.51 430.256C574.51 431.647 573.386 432.771 572.003 432.771Z" fill="white" fill-opacity="0.1"/>
<path d="M569.497 540.5C569.497 541.889 570.619 543.015 572.003 543.015C573.387 543.015 574.51 541.889 574.51 540.5C574.51 539.111 573.387 537.985 572.003 537.985C570.619 537.985 569.497 539.111 569.497 540.5Z" fill="white" fill-opacity="0.1"/>
<path d="M572.003 653.259C570.62 653.259 569.497 652.136 569.497 650.744C569.497 649.353 570.62 648.229 572.003 648.229C573.386 648.229 574.51 649.353 574.51 650.744C574.51 652.136 573.386 653.259 572.003 653.259Z" fill="white" fill-opacity="0.1"/>
<path d="M572.003 763.503C570.62 763.503 569.497 762.38 569.497 760.988C569.497 759.597 570.62 758.473 572.003 758.473C573.386 758.473 574.51 759.597 574.51 760.988C574.51 762.38 573.386 763.503 572.003 763.503Z" fill="white" fill-opacity="0.1"/>
<path d="M572.003 984C570.62 984 569.497 982.876 569.497 981.485C569.497 980.093 570.62 978.97 572.003 978.97C573.386 978.97 574.509 980.093 574.509 981.485C574.509 982.876 573.386 984 572.003 984Z" fill="white" fill-opacity="0.1"/>
<path d="M462.174 102.03C460.791 102.03 459.668 100.906 459.668 99.515C459.668 98.1235 460.791 97 462.174 97C463.557 97 464.68 98.1235 464.68 99.515C464.68 100.906 463.557 102.03 462.174 102.03Z" fill="white" fill-opacity="0.1"/>
<path d="M462.174 212.274C460.791 212.274 459.668 211.151 459.668 209.759C459.668 208.368 460.791 207.244 462.174 207.244C463.557 207.244 464.68 208.368 464.68 209.759C464.68 211.151 463.557 212.274 462.174 212.274Z" fill="white" fill-opacity="0.1"/>
<path d="M462.174 322.518C460.791 322.518 459.668 321.395 459.668 320.003C459.668 318.612 460.791 317.488 462.174 317.488C463.557 317.488 464.68 318.612 464.68 320.003C464.68 321.395 463.557 322.518 462.174 322.518Z" fill="white" fill-opacity="0.1"/>
<path d="M462.174 432.771C460.791 432.771 459.668 431.647 459.668 430.256C459.668 428.864 460.791 427.741 462.174 427.741C463.557 427.741 464.68 428.864 464.68 430.256C464.68 431.647 463.557 432.771 462.174 432.771Z" fill="white" fill-opacity="0.1"/>
<path d="M462.174 543.015C460.791 543.015 459.668 541.891 459.668 540.5C459.668 539.108 460.791 537.985 462.174 537.985C463.557 537.985 464.68 539.108 464.68 540.5C464.68 541.891 463.557 543.015 462.174 543.015Z" fill="white" fill-opacity="0.1"/>
<path d="M462.174 653.259C460.791 653.259 459.668 652.136 459.668 650.744C459.668 649.353 460.791 648.229 462.174 648.229C463.557 648.229 464.68 649.353 464.68 650.744C464.68 652.136 463.557 653.259 462.174 653.259Z" fill="white" fill-opacity="0.1"/>
<path d="M462.174 763.503C460.791 763.503 459.668 762.38 459.668 760.988C459.668 759.597 460.791 758.473 462.174 758.473C463.557 758.473 464.68 759.597 464.68 760.988C464.68 762.38 463.557 763.503 462.174 763.503Z" fill="white" fill-opacity="0.1"/>
<path d="M462.174 873.756C460.791 873.756 459.668 872.632 459.668 871.241C459.668 869.849 460.791 868.726 462.174 868.726C463.557 868.726 464.68 869.849 464.68 871.241C464.68 872.632 463.557 873.756 462.174 873.756Z" fill="white" fill-opacity="0.1"/>
<path d="M462.174 984C460.791 984 459.668 982.876 459.668 981.485C459.668 980.093 460.791 978.97 462.174 978.97C463.557 978.97 464.68 980.093 464.68 981.485C464.68 982.876 463.557 984 462.174 984Z" fill="white" fill-opacity="0.1"/>
<path d="M352.345 102.03C350.962 102.03 349.839 100.906 349.839 99.515C349.839 98.1235 350.962 97 352.345 97C353.728 97 354.851 98.1235 354.851 99.515C354.851 100.906 353.728 102.03 352.345 102.03Z" fill="white" fill-opacity="0.1"/>
<path d="M352.345 212.274C350.962 212.274 349.839 211.151 349.839 209.759C349.839 208.368 350.962 207.244 352.345 207.244C353.728 207.244 354.851 208.368 354.851 209.759C354.851 211.151 353.728 212.274 352.345 212.274Z" fill="white" fill-opacity="0.1"/>
<path d="M352.345 322.518C350.962 322.518 349.839 321.395 349.839 320.003C349.839 318.612 350.962 317.488 352.345 317.488C353.728 317.488 354.851 318.612 354.851 320.003C354.851 321.395 353.728 322.518 352.345 322.518Z" fill="white" fill-opacity="0.1"/>
<path d="M352.345 432.771C350.962 432.771 349.839 431.647 349.839 430.256C349.839 428.864 350.962 427.741 352.345 427.741C353.728 427.741 354.851 428.864 354.851 430.256C354.851 431.647 353.728 432.771 352.345 432.771Z" fill="white" fill-opacity="0.1"/>
<path d="M352.345 543.015C350.962 543.015 349.839 541.891 349.839 540.5C349.839 539.108 350.962 537.985 352.345 537.985C353.728 537.985 354.851 539.108 354.851 540.5C354.851 541.891 353.728 543.015 352.345 543.015Z" fill="white" fill-opacity="0.1"/>
<path d="M352.345 653.259C350.962 653.259 349.839 652.136 349.839 650.744C349.839 649.353 350.962 648.229 352.345 648.229C353.728 648.229 354.851 649.353 354.851 650.744C354.851 652.136 353.728 653.259 352.345 653.259Z" fill="white" fill-opacity="0.1"/>
<path d="M352.345 763.503C350.962 763.503 349.839 762.38 349.839 760.988C349.839 759.597 350.962 758.473 352.345 758.473C353.728 758.473 354.851 759.597 354.851 760.988C354.851 762.38 353.728 763.503 352.345 763.503Z" fill="white" fill-opacity="0.1"/>
<path d="M352.345 873.756C350.962 873.756 349.839 872.632 349.839 871.241C349.839 869.849 350.962 868.726 352.345 868.726C353.728 868.726 354.851 869.849 354.851 871.241C354.851 872.632 353.728 873.756 352.345 873.756Z" fill="white" fill-opacity="0.1"/>
<path d="M352.345 984C350.962 984 349.839 982.876 349.839 981.485C349.839 980.093 350.962 978.97 352.345 978.97C353.728 978.97 354.851 980.093 354.851 981.485C354.851 982.876 353.728 984 352.345 984Z" fill="white" fill-opacity="0.1"/>
<path d="M242.507 102.03C241.124 102.03 240 100.906 240 99.515C240 98.1235 241.124 97 242.507 97C243.889 97 245.013 98.1235 245.013 99.515C245.013 100.906 243.889 102.03 242.507 102.03Z" fill="white" fill-opacity="0.1"/>
<path d="M242.507 212.274C241.124 212.274 240 211.151 240 209.759C240 208.368 241.124 207.244 242.507 207.244C243.889 207.244 245.013 208.368 245.013 209.759C245.013 211.151 243.889 212.274 242.507 212.274Z" fill="white" fill-opacity="0.1"/>
<path d="M242.507 322.518C241.124 322.518 240 321.395 240 320.003C240 318.612 241.124 317.488 242.507 317.488C243.889 317.488 245.013 318.612 245.013 320.003C245.013 321.395 243.889 322.518 242.507 322.518Z" fill="white" fill-opacity="0.1"/>
<path d="M242.507 432.771C241.124 432.771 240 431.647 240 430.256C240 428.864 241.124 427.741 242.507 427.741C243.889 427.741 245.013 428.864 245.013 430.256C245.013 431.647 243.889 432.771 242.507 432.771Z" fill="white" fill-opacity="0.1"/>
<path d="M242.507 543.015C241.124 543.015 240 541.891 240 540.5C240 539.108 241.124 537.985 242.507 537.985C243.889 537.985 245.013 539.108 245.013 540.5C245.013 541.891 243.889 543.015 242.507 543.015Z" fill="white" fill-opacity="0.1"/>
<path d="M242.507 653.259C241.124 653.259 240 652.136 240 650.744C240 649.353 241.124 648.229 242.507 648.229C243.889 648.229 245.013 649.353 245.013 650.744C245.013 652.136 243.889 653.259 242.507 653.259Z" fill="white" fill-opacity="0.1"/>
<path d="M242.507 763.503C241.124 763.503 240 762.38 240 760.988C240 759.597 241.124 758.473 242.507 758.473C243.889 758.473 245.013 759.597 245.013 760.988C245.013 762.38 243.889 763.503 242.507 763.503Z" fill="white" fill-opacity="0.1"/>
<path d="M242.507 873.756C241.124 873.756 240 872.632 240 871.241C240 869.849 241.124 868.726 242.507 868.726C243.889 868.726 245.013 869.849 245.013 871.241C245.013 872.632 243.889 873.756 242.507 873.756Z" fill="white" fill-opacity="0.1"/>
<path d="M242.507 984C241.124 984 240 982.876 240 981.485C240 980.093 241.124 978.97 242.507 978.97C243.889 978.97 245.013 980.093 245.013 981.485C245.013 982.876 243.889 984 242.507 984Z" fill="white" fill-opacity="0.1"/>
<path d="M1688.5 88.0002C1687.12 88.0002 1686 86.8834 1686 85.5002C1686 84.1171 1687.12 83.0002 1688.5 83.0002C1689.88 83.0002 1691 84.1171 1691 85.5002C1691 86.8834 1689.88 88.0002 1688.5 88.0002Z" fill="white" fill-opacity="0.1"/>
<path d="M1688.5 187C1687.12 187 1686 186.107 1686 185C1686 183.894 1687.12 183 1688.5 183C1689.88 183 1691 183.894 1691 185C1691 186.107 1689.88 187 1688.5 187Z" fill="white" fill-opacity="0.1"/>
<path d="M1688.5 286C1687.12 286 1686 284.883 1686 283.5C1686 282.117 1687.12 281 1688.5 281C1689.88 281 1691 282.117 1691 283.5C1691 284.883 1689.88 286 1688.5 286Z" fill="white" fill-opacity="0.1"/>
<path d="M1668.49 432.771C1667.11 432.771 1665.98 431.648 1665.98 430.256C1665.98 428.865 1667.11 427.741 1668.49 427.741C1669.87 427.741 1671 428.865 1671 430.256C1671 431.648 1669.87 432.771 1668.49 432.771Z" fill="white" fill-opacity="0.1"/>
<path d="M1668.49 543.015C1667.11 543.015 1665.98 541.892 1665.98 540.5C1665.98 539.109 1667.11 537.985 1668.49 537.985C1669.87 537.985 1671 539.109 1671 540.5C1671 541.892 1669.87 543.015 1668.49 543.015Z" fill="white" fill-opacity="0.1"/>
<path d="M1668.49 653.259C1667.11 653.259 1665.98 652.136 1665.98 650.744C1665.98 649.353 1667.11 648.229 1668.49 648.229C1669.87 648.229 1671 649.353 1671 650.744C1671 652.136 1669.87 653.259 1668.49 653.259Z" fill="white" fill-opacity="0.1"/>
<path d="M1668.49 763.503C1667.11 763.503 1665.98 762.38 1665.98 760.988C1665.98 759.597 1667.11 758.473 1668.49 758.473C1669.87 758.473 1671 759.597 1671 760.988C1671 762.38 1669.87 763.503 1668.49 763.503Z" fill="white" fill-opacity="0.1"/>
<path d="M1668.49 873.756C1667.11 873.756 1665.98 872.632 1665.98 871.241C1665.98 869.85 1667.11 868.726 1668.49 868.726C1669.87 868.726 1671 869.85 1671 871.241C1671 872.632 1669.87 873.756 1668.49 873.756Z" fill="white" fill-opacity="0.1"/>
<path d="M1668.49 984C1667.11 984 1665.98 982.877 1665.98 981.485C1665.98 980.094 1667.11 978.97 1668.49 978.97C1669.87 978.97 1671 980.094 1671 981.485C1671 982.877 1669.87 984 1668.49 984Z" fill="white" fill-opacity="0.1"/>
<path d="M1589.5 88.0002C1588.12 88.0002 1587 86.8834 1587 85.5002C1587 84.1171 1588.12 83.0002 1589.5 83.0002C1590.88 83.0002 1592 84.1171 1592 85.5002C1592 86.8834 1590.88 88.0002 1589.5 88.0002Z" fill="white" fill-opacity="0.1"/>
<path d="M1589.5 187C1588.12 187 1587 186.107 1587 185C1587 183.894 1588.12 183 1589.5 183C1590.88 183 1592 183.894 1592 185C1592 186.107 1590.88 187 1589.5 187Z" fill="white" fill-opacity="0.1"/>
<path d="M1589.5 286C1588.12 286 1587 284.883 1587 283.5C1587 282.117 1588.12 281 1589.5 281C1590.88 281 1592 282.117 1592 283.5C1592 284.883 1590.88 286 1589.5 286Z" fill="white" fill-opacity="0.1"/>
<path d="M1558.66 432.771C1557.28 432.771 1556.16 431.647 1556.16 430.256C1556.16 428.864 1557.28 427.741 1558.66 427.741C1560.04 427.741 1561.17 428.864 1561.17 430.256C1561.17 431.647 1560.04 432.771 1558.66 432.771Z" fill="white" fill-opacity="0.1"/>
<path d="M1558.66 543.015C1557.28 543.015 1556.16 541.892 1556.16 540.5C1556.16 539.109 1557.28 537.985 1558.66 537.985C1560.04 537.985 1561.17 539.109 1561.17 540.5C1561.17 541.892 1560.04 543.015 1558.66 543.015Z" fill="white" fill-opacity="0.1"/>
<path d="M1558.66 653.259C1557.28 653.259 1556.16 652.136 1556.16 650.744C1556.16 649.353 1557.28 648.229 1558.66 648.229C1560.04 648.229 1561.17 649.353 1561.17 650.744C1561.17 652.136 1560.04 653.259 1558.66 653.259Z" fill="white" fill-opacity="0.1"/>
<path d="M1558.66 763.503C1557.28 763.503 1556.16 762.38 1556.16 760.988C1556.16 759.597 1557.28 758.473 1558.66 758.473C1560.04 758.473 1561.17 759.597 1561.17 760.988C1561.17 762.38 1560.04 763.503 1558.66 763.503Z" fill="white" fill-opacity="0.1"/>
<path d="M1558.66 873.756C1557.28 873.756 1556.16 872.632 1556.16 871.241C1556.16 869.85 1557.28 868.726 1558.66 868.726C1560.04 868.726 1561.17 869.85 1561.17 871.241C1561.17 872.632 1560.04 873.756 1558.66 873.756Z" fill="white" fill-opacity="0.1"/>
<path d="M1558.66 984C1557.28 984 1556.16 982.877 1556.16 981.485C1556.16 980.094 1557.28 978.97 1558.66 978.97C1560.04 978.97 1561.17 980.094 1561.17 981.485C1561.17 982.877 1560.04 984 1558.66 984Z" fill="white" fill-opacity="0.1"/>
<path d="M1448.83 102.03C1447.45 102.03 1446.33 100.906 1446.33 99.515C1446.33 98.1235 1447.45 97 1448.83 97C1450.21 97 1451.34 98.1235 1451.34 99.515C1451.34 100.906 1450.21 102.03 1448.83 102.03Z" fill="white" fill-opacity="0.1"/>
<path d="M1448.83 212.274C1447.45 212.274 1446.33 211.151 1446.33 209.759C1446.33 208.368 1447.45 207.244 1448.83 207.244C1450.21 207.244 1451.34 208.368 1451.34 209.759C1451.34 211.151 1450.21 212.274 1448.83 212.274Z" fill="white" fill-opacity="0.1"/>
<path d="M1448.83 322.518C1447.45 322.518 1446.33 321.395 1446.33 320.003C1446.33 318.612 1447.45 317.488 1448.83 317.488C1450.21 317.488 1451.34 318.612 1451.34 320.003C1451.34 321.395 1450.21 322.518 1448.83 322.518Z" fill="white" fill-opacity="0.1"/>
<path d="M1448.83 432.771C1447.45 432.771 1446.33 431.647 1446.33 430.256C1446.33 428.864 1447.45 427.741 1448.83 427.741C1450.21 427.741 1451.34 428.864 1451.34 430.256C1451.34 431.647 1450.21 432.771 1448.83 432.771Z" fill="white" fill-opacity="0.1"/>
<path d="M1448.83 543.015C1447.45 543.015 1446.33 541.892 1446.33 540.5C1446.33 539.109 1447.45 537.985 1448.83 537.985C1450.21 537.985 1451.34 539.109 1451.34 540.5C1451.34 541.892 1450.21 543.015 1448.83 543.015Z" fill="white" fill-opacity="0.1"/>
<path d="M1448.83 653.259C1447.45 653.259 1446.33 652.136 1446.33 650.744C1446.33 649.353 1447.45 648.229 1448.83 648.229C1450.21 648.229 1451.34 649.353 1451.34 650.744C1451.34 652.136 1450.21 653.259 1448.83 653.259Z" fill="white" fill-opacity="0.1"/>
<path d="M1448.83 763.503C1447.45 763.503 1446.33 762.38 1446.33 760.988C1446.33 759.597 1447.45 758.473 1448.83 758.473C1450.21 758.473 1451.34 759.597 1451.34 760.988C1451.34 762.38 1450.21 763.503 1448.83 763.503Z" fill="white" fill-opacity="0.1"/>
<path d="M1448.83 873.756C1447.45 873.756 1446.33 872.632 1446.33 871.241C1446.33 869.85 1447.45 868.726 1448.83 868.726C1450.21 868.726 1451.34 869.85 1451.34 871.241C1451.34 872.632 1450.21 873.756 1448.83 873.756Z" fill="white" fill-opacity="0.1"/>
<path d="M1448.83 984C1447.45 984 1446.33 982.877 1446.33 981.485C1446.33 980.094 1447.45 978.97 1448.83 978.97C1450.21 978.97 1451.34 980.094 1451.34 981.485C1451.34 982.877 1450.21 984 1448.83 984Z" fill="white" fill-opacity="0.1"/>
<path d="M1339 102.03C1337.62 102.03 1336.5 100.906 1336.5 99.515C1336.5 98.1235 1337.62 97 1339 97C1340.39 97 1341.51 98.1235 1341.51 99.515C1341.51 100.906 1340.39 102.03 1339 102.03Z" fill="white" fill-opacity="0.1"/>
<path d="M1339 212.274C1337.62 212.274 1336.5 211.151 1336.5 209.759C1336.5 208.368 1337.62 207.244 1339 207.244C1340.39 207.244 1341.51 208.368 1341.51 209.759C1341.51 211.151 1340.39 212.274 1339 212.274Z" fill="white" fill-opacity="0.1"/>
<path d="M1339 322.518C1337.62 322.518 1336.5 321.395 1336.5 320.003C1336.5 318.612 1337.62 317.488 1339 317.488C1340.39 317.488 1341.51 318.612 1341.51 320.003C1341.51 321.395 1340.39 322.518 1339 322.518Z" fill="white" fill-opacity="0.1"/>
<path d="M1339 432.771C1337.62 432.771 1336.5 431.647 1336.5 430.256C1336.5 428.864 1337.62 427.741 1339 427.741C1340.39 427.741 1341.51 428.864 1341.51 430.256C1341.51 431.647 1340.39 432.771 1339 432.771Z" fill="white" fill-opacity="0.1"/>
<path d="M1336.5 540.5C1336.5 541.889 1337.62 543.015 1339 543.015C1340.39 543.015 1341.51 541.889 1341.51 540.5C1341.51 539.111 1340.39 537.985 1339 537.985C1337.62 537.985 1336.5 539.111 1336.5 540.5Z" fill="white" fill-opacity="0.1"/>
<path d="M1339 653.259C1337.62 653.259 1336.5 652.136 1336.5 650.744C1336.5 649.353 1337.62 648.229 1339 648.229C1340.39 648.229 1341.51 649.353 1341.51 650.744C1341.51 652.136 1340.39 653.259 1339 653.259Z" fill="white" fill-opacity="0.1"/>
<path d="M1339 763.503C1337.62 763.503 1336.5 762.38 1336.5 760.988C1336.5 759.597 1337.62 758.473 1339 758.473C1340.39 758.473 1341.51 759.597 1341.51 760.988C1341.51 762.38 1340.39 763.503 1339 763.503Z" fill="white" fill-opacity="0.1"/>
<path d="M1339 984C1337.62 984 1336.5 982.877 1336.5 981.485C1336.5 980.094 1337.62 978.97 1339 978.97C1340.39 978.97 1341.51 980.094 1341.51 981.485C1341.51 982.877 1340.39 984 1339 984Z" fill="white" fill-opacity="0.1"/>
<path d="M1229.17 102.03C1227.79 102.03 1226.67 100.906 1226.67 99.515C1226.67 98.1235 1227.79 97 1229.17 97C1230.56 97 1231.68 98.1235 1231.68 99.515C1231.68 100.906 1230.56 102.03 1229.17 102.03Z" fill="white" fill-opacity="0.1"/>
<path d="M1229.17 212.274C1227.79 212.274 1226.67 211.151 1226.67 209.759C1226.67 208.368 1227.79 207.244 1229.17 207.244C1230.56 207.244 1231.68 208.368 1231.68 209.759C1231.68 211.151 1230.56 212.274 1229.17 212.274Z" fill="white" fill-opacity="0.1"/>
<path d="M1229.17 322.518C1227.79 322.518 1226.67 321.395 1226.67 320.003C1226.67 318.612 1227.79 317.488 1229.17 317.488C1230.56 317.488 1231.68 318.612 1231.68 320.003C1231.68 321.395 1230.56 322.518 1229.17 322.518Z" fill="white" fill-opacity="0.1"/>
<path d="M1229.17 432.771C1227.79 432.771 1226.67 431.647 1226.67 430.256C1226.67 428.864 1227.79 427.741 1229.17 427.741C1230.56 427.741 1231.68 428.864 1231.68 430.256C1231.68 431.647 1230.56 432.771 1229.17 432.771Z" fill="white" fill-opacity="0.1"/>
<path d="M1229.17 543.015C1227.79 543.015 1226.67 541.892 1226.67 540.5C1226.67 539.109 1227.79 537.985 1229.17 537.985C1230.56 537.985 1231.68 539.109 1231.68 540.5C1231.68 541.892 1230.56 543.015 1229.17 543.015Z" fill="white" fill-opacity="0.1"/>
<path d="M1229.17 653.259C1227.79 653.259 1226.67 652.136 1226.67 650.744C1226.67 649.353 1227.79 648.229 1229.17 648.229C1230.56 648.229 1231.68 649.353 1231.68 650.744C1231.68 652.136 1230.56 653.259 1229.17 653.259Z" fill="white" fill-opacity="0.1"/>
<path d="M1229.17 763.503C1227.79 763.503 1226.67 762.38 1226.67 760.988C1226.67 759.597 1227.79 758.473 1229.17 758.473C1230.56 758.473 1231.68 759.597 1231.68 760.988C1231.68 762.38 1230.56 763.503 1229.17 763.503Z" fill="white" fill-opacity="0.1"/>
<path d="M1229.17 873.756C1227.79 873.756 1226.67 872.632 1226.67 871.241C1226.67 869.85 1227.79 868.726 1229.17 868.726C1230.56 868.726 1231.68 869.85 1231.68 871.241C1231.68 872.632 1230.56 873.756 1229.17 873.756Z" fill="white" fill-opacity="0.1"/>
<path d="M1229.17 984C1227.79 984 1226.67 982.877 1226.67 981.485C1226.67 980.094 1227.79 978.97 1229.17 978.97C1230.56 978.97 1231.68 980.094 1231.68 981.485C1231.68 982.877 1230.56 984 1229.17 984Z" fill="white" fill-opacity="0.1"/>
<path d="M1119.34 102.03C1117.96 102.03 1116.84 100.906 1116.84 99.515C1116.84 98.1235 1117.96 97 1119.34 97C1120.73 97 1121.85 98.1235 1121.85 99.515C1121.85 100.906 1120.73 102.03 1119.34 102.03Z" fill="white" fill-opacity="0.1"/>
<path d="M1119.34 212.274C1117.96 212.274 1116.84 211.151 1116.84 209.759C1116.84 208.368 1117.96 207.244 1119.34 207.244C1120.73 207.244 1121.85 208.368 1121.85 209.759C1121.85 211.151 1120.73 212.274 1119.34 212.274Z" fill="white" fill-opacity="0.1"/>
<path d="M1119.34 322.518C1117.96 322.518 1116.84 321.395 1116.84 320.003C1116.84 318.612 1117.96 317.488 1119.34 317.488C1120.73 317.488 1121.85 318.612 1121.85 320.003C1121.85 321.395 1120.73 322.518 1119.34 322.518Z" fill="white" fill-opacity="0.1"/>
<path d="M1119.34 432.771C1117.96 432.771 1116.84 431.647 1116.84 430.256C1116.84 428.864 1117.96 427.741 1119.34 427.741C1120.73 427.741 1121.85 428.864 1121.85 430.256C1121.85 431.647 1120.73 432.771 1119.34 432.771Z" fill="white" fill-opacity="0.1"/>
<path d="M1119.34 543.015C1117.96 543.015 1116.84 541.892 1116.84 540.5C1116.84 539.109 1117.96 537.985 1119.34 537.985C1120.73 537.985 1121.85 539.109 1121.85 540.5C1121.85 541.892 1120.73 543.015 1119.34 543.015Z" fill="white" fill-opacity="0.1"/>
<path d="M1119.34 653.259C1117.96 653.259 1116.84 652.136 1116.84 650.744C1116.84 649.353 1117.96 648.229 1119.34 648.229C1120.73 648.229 1121.85 649.353 1121.85 650.744C1121.85 652.136 1120.73 653.259 1119.34 653.259Z" fill="white" fill-opacity="0.1"/>
<path d="M1119.34 763.503C1117.96 763.503 1116.84 762.38 1116.84 760.988C1116.84 759.597 1117.96 758.473 1119.34 758.473C1120.73 758.473 1121.85 759.597 1121.85 760.988C1121.85 762.38 1120.73 763.503 1119.34 763.503Z" fill="white" fill-opacity="0.1"/>
<path d="M1119.34 873.756C1117.96 873.756 1116.84 872.632 1116.84 871.241C1116.84 869.85 1117.96 868.726 1119.34 868.726C1120.73 868.726 1121.85 869.85 1121.85 871.241C1121.85 872.632 1120.73 873.756 1119.34 873.756Z" fill="white" fill-opacity="0.1"/>
<path d="M1119.34 984C1117.96 984 1116.84 982.877 1116.84 981.485C1116.84 980.094 1117.96 978.97 1119.34 978.97C1120.73 978.97 1121.85 980.094 1121.85 981.485C1121.85 982.877 1120.73 984 1119.34 984Z" fill="white" fill-opacity="0.1"/>
<path d="M1009.51 102.03C1008.12 102.03 1007 100.906 1007 99.515C1007 98.1235 1008.12 97 1009.51 97C1010.89 97 1012.01 98.1235 1012.01 99.515C1012.01 100.906 1010.89 102.03 1009.51 102.03Z" fill="white" fill-opacity="0.1"/>
<path d="M1009.51 212.274C1008.12 212.274 1007 211.151 1007 209.759C1007 208.368 1008.12 207.244 1009.51 207.244C1010.89 207.244 1012.01 208.368 1012.01 209.759C1012.01 211.151 1010.89 212.274 1009.51 212.274Z" fill="white" fill-opacity="0.1"/>
<path d="M1009.51 322.518C1008.12 322.518 1007 321.395 1007 320.003C1007 318.612 1008.12 317.488 1009.51 317.488C1010.89 317.488 1012.01 318.612 1012.01 320.003C1012.01 321.395 1010.89 322.518 1009.51 322.518Z" fill="white" fill-opacity="0.1"/>
<path d="M1009.51 432.771C1008.12 432.771 1007 431.647 1007 430.256C1007 428.864 1008.12 427.741 1009.51 427.741C1010.89 427.741 1012.01 428.864 1012.01 430.256C1012.01 431.647 1010.89 432.771 1009.51 432.771Z" fill="white" fill-opacity="0.1"/>
<path d="M1009.51 543.015C1008.12 543.015 1007 541.892 1007 540.5C1007 539.109 1008.12 537.985 1009.51 537.985C1010.89 537.985 1012.01 539.109 1012.01 540.5C1012.01 541.892 1010.89 543.015 1009.51 543.015Z" fill="white" fill-opacity="0.1"/>
<path d="M1009.51 653.259C1008.12 653.259 1007 652.136 1007 650.744C1007 649.353 1008.12 648.229 1009.51 648.229C1010.89 648.229 1012.01 649.353 1012.01 650.744C1012.01 652.136 1010.89 653.259 1009.51 653.259Z" fill="white" fill-opacity="0.1"/>
<path d="M1009.51 763.503C1008.12 763.503 1007 762.38 1007 760.988C1007 759.597 1008.12 758.473 1009.51 758.473C1010.89 758.473 1012.01 759.597 1012.01 760.988C1012.01 762.38 1010.89 763.503 1009.51 763.503Z" fill="white" fill-opacity="0.1"/>
<path d="M1009.51 873.756C1008.12 873.756 1007 872.632 1007 871.241C1007 869.85 1008.12 868.726 1009.51 868.726C1010.89 868.726 1012.01 869.85 1012.01 871.241C1012.01 872.632 1010.89 873.756 1009.51 873.756Z" fill="white" fill-opacity="0.1"/>
<path d="M1009.51 984C1008.12 984 1007 982.877 1007 981.485C1007 980.094 1008.12 978.97 1009.51 978.97C1010.89 978.97 1012.01 980.094 1012.01 981.485C1012.01 982.877 1010.89 984 1009.51 984Z" fill="white" fill-opacity="0.1"/>
<path d="M-24 421C-111.26 421 -182 491.74 -182 579C-182 666.26 -111.26 737 -24 737C63.2599 737 134 666.26 134 579C134 491.74 63.2599 421 -24 421ZM-24 657.613C-67.4154 657.613 -102.608 622.421 -102.608 579.006C-102.608 535.591 -67.4154 500.398 -24 500.398C19.4153 500.398 54.6076 535.591 54.6076 579.006C54.6076 622.421 19.4153 657.613 -24 657.613Z" fill="#FF0B53"/>
<path fill-rule="evenodd" clip-rule="evenodd" d="M45.5759 1016.76C44.7795 1014.06 46.3238 1011.22 49.0253 1010.43L127.571 987.27C130.272 986.474 133.108 988.018 133.904 990.72C134.701 993.421 133.157 996.257 130.455 997.053L51.9096 1020.21C49.208 1021.01 46.3724 1019.46 45.5759 1016.76Z" fill="#F2DA05"/>
<path d="M208.03 852.058L178.617 903.341L217.872 925.856L247.285 874.573C252.898 864.788 265.364 861.386 275.047 866.94C284.728 872.493 288.088 884.971 282.475 894.757L253.062 946.039L292.317 968.554L321.73 917.272C339.812 885.746 329.054 845.459 297.686 827.468C266.319 809.477 226.112 820.532 208.03 852.058Z" fill="#9B51E0"/>
<path d="M271.873 1107.99C271.873 1107.99 302.284 978.567 174.56 939.462C82.9047 911.41 32.9326 909.016 7.73973 850.817C-17.4531 792.626 -22.8472 758.739 -50.1255 755.263" stroke="white" stroke-miterlimit="10" stroke-dasharray="20 10"/>
<path d="M-50.1255 908.145C-50.1255 908.145 34.6749 873.977 78.9889 964.136C108.898 1024.99 210.444 996.456 242.773 1035.9C268.406 1067.19 213.057 1107.98 213.057 1107.98" stroke="white" stroke-miterlimit="10" stroke-dasharray="20 10"/>
<path d="M-73.0479 934.886C-73.0479 934.886 -7.44791 935.925 35.5638 1005.43C78.5756 1074.94 152.861 1047.73 164.159 1087.71C175.458 1127.68 126.797 1167.65 126.797 1167.65" stroke="white" stroke-miterlimit="10" stroke-dasharray="20 10"/>
<path d="M-49.5972 983.776C-49.5972 983.776 4.2731 978.567 11.2247 1031.57C18.1762 1084.57 -40.7097 1129.75 -40.7097 1129.75" stroke="white" stroke-miterlimit="10" stroke-dasharray="20 10"/>
<rect x="75.0381" y="868.788" width="57.4729" height="21.9057" rx="10.9528" transform="rotate(-101.74 75.0381 868.788)" fill="#4AF2CB"/>
<path d="M321.587 1057.41C320.431 1057.75 319.741 1056.16 320.785 1055.55L329.541 1050.47C340.846 1043.91 346.184 1030.46 342.451 1017.93L339.56 1008.23C339.215 1007.07 340.811 1006.38 341.417 1007.42L346.498 1016.18C353.059 1027.49 366.513 1032.82 379.04 1029.09L388.741 1026.2C389.898 1025.86 390.587 1027.45 389.544 1028.06L380.788 1033.14C369.482 1039.7 364.145 1053.15 367.878 1065.68L370.769 1075.38C371.114 1076.54 369.517 1077.23 368.911 1076.18L363.83 1067.43C357.269 1056.12 343.816 1050.78 331.289 1054.52L321.587 1057.41Z" fill="#F2994A"/>
<path fill-rule="evenodd" clip-rule="evenodd" d="M126.336 327.054C95.6056 334.858 76.9389 366.008 84.6237 396.735C76.9218 365.939 45.6664 347.23 14.8137 354.946C45.544 347.142 64.2106 315.992 56.5258 285.265C64.2279 316.061 95.4831 334.771 126.336 327.054Z" fill="#4F4F4F"/>
<path fill-rule="evenodd" clip-rule="evenodd" d="M25.0989 248.389C11.7871 240.767 -5.18092 245.322 -12.8428 258.593C-5.16383 245.292 -9.74096 228.274 -23.0658 220.581C-9.75415 228.202 7.21404 223.647 14.8759 210.377C7.19682 223.677 11.7741 240.696 25.0989 248.389Z" fill="#4F4F4F" fill-opacity="0.1"/>
<rect x="10.5469" y="1004.76" width="151.023" height="80.575" rx="2" transform="rotate(-16.4266 10.5469 1004.76)" fill="#F2DA05"/>
<path fill-rule="evenodd" clip-rule="evenodd" d="M1892.2 74.2003C1892.87 71.5213 1891.25 68.8066 1888.57 68.1368L1708.76 23.1783C1706.08 22.5085 1703.37 24.1372 1702.7 26.8162L1689.37 80.1025C1688.7 82.7815 1690.33 85.4962 1693.01 86.166L1695.05 86.6764C1695.59 86.8104 1695.91 87.3534 1695.78 87.8891L1690.41 109.376C1690.02 110.932 1691.53 112.29 1693.03 111.74L1734.31 96.6698C1734.5 96.6013 1734.7 96.5906 1734.9 96.639L1872.82 131.124C1875.5 131.794 1878.21 130.166 1878.88 127.487L1892.2 74.2003ZM1757.99 79.1115C1763.06 80.3781 1768.19 77.2983 1769.46 72.2327C1770.73 67.167 1767.65 62.0337 1762.58 60.7671C1757.52 59.5005 1752.38 62.5802 1751.12 67.6459C1749.85 72.7115 1752.93 77.8448 1757.99 79.1115ZM1800.03 79.8771C1798.77 84.9427 1793.44 87.9736 1788.13 86.6466C1782.82 85.3197 1779.55 80.1375 1780.82 75.0718C1782.08 70.0062 1787.41 66.9753 1792.72 68.3022C1798.03 69.6292 1801.3 74.8114 1800.03 79.8771ZM1818.27 94.1824C1823.33 95.449 1828.47 92.3693 1829.73 87.3036C1831 82.238 1827.92 77.1047 1822.86 75.838C1817.79 74.5714 1812.66 77.6512 1811.39 82.7168C1810.12 87.7825 1813.2 92.9158 1818.27 94.1824Z" fill="#FFF700"/>
<path d="M2039.9 -45.5913C2039.9 -45.5913 1959.05 0.222806 1973.43 113.407C1989.55 240.315 1896.17 294.863 1832.4 263.42C1768.62 231.977 1755.14 92.3192 1651.84 111.841C1548.53 131.371 1501.83 -38.4148 1501.83 -38.4148" stroke="white" stroke-miterlimit="10" stroke-dasharray="20 10"/>
<path d="M1946.48 -79.7271C1946.48 -79.7271 1911.44 17.0156 1924.02 113.272C1936.6 209.529 1880.06 220.784 1857.55 209.529C1810.84 186.171 1801.86 61.308 1726.41 53.2221C1669.69 47.1442 1593.46 95.4435 1553.04 -14.1484" stroke="white" stroke-miterlimit="10" stroke-dasharray="20 10"/>
<path d="M1908.75 -36.605C1908.75 -36.605 1921.37 62.2808 1865.63 44.6232C1801.74 24.3905 1802.75 -23.1345 1721.9 21.7792C1693.14 37.7529 1577.28 42.4442 1600.63 -45.5913" stroke="white" stroke-miterlimit="10" stroke-dasharray="20 10"/>
<path d="M1868.32 175.383C1881.72 175.383 1892.58 155.476 1892.58 130.92C1892.58 106.364 1881.72 86.4565 1868.32 86.4565C1854.93 86.4565 1844.07 106.364 1844.07 130.92C1844.07 155.476 1854.93 175.383 1868.32 175.383Z" stroke="white" stroke-miterlimit="10" stroke-dasharray="20 10"/>
<path fill-rule="evenodd" clip-rule="evenodd" d="M2022.64 449.416C2082.25 509.028 2082.25 605.678 2022.64 665.29C1963.03 724.903 1866.37 724.903 1806.76 665.291C1747.15 605.678 1747.15 509.028 1806.76 449.416C1866.37 389.803 1963.03 389.804 2022.64 449.416ZM1977.46 573.887C1981.63 558.332 1979.44 541.758 1971.39 527.812L1866.22 588.532C1874.27 602.478 1887.54 612.654 1903.09 616.822C1918.65 620.99 1935.22 618.808 1949.17 610.757C1963.11 602.705 1973.29 589.442 1977.46 573.887Z" fill="#FF6200"/>
<path d="M1866.37 589.137C1858.19 575.266 1855.85 558.713 1859.88 543.12C1863.9 527.527 1873.96 514.172 1887.83 505.992C1901.7 497.812 1918.25 495.478 1933.85 499.503C1949.44 503.527 1962.79 513.581 1970.97 527.453L1866.37 589.137Z" fill="#EDC12F"/>
<path fill-rule="evenodd" clip-rule="evenodd" d="M1784.48 303.94C1791.49 317.17 1793.45 331.734 1791.04 345.421C1791.01 345.627 1791 345.838 1791.02 346.047C1791.11 346.867 1791.09 347.721 1790.96 348.6L1781.72 411.03C1780.23 421.033 1769.48 426.734 1760.37 422.347L1703.51 394.967C1702.71 394.581 1701.99 394.115 1701.36 393.585C1701.2 393.45 1701.02 393.334 1700.83 393.248C1688.15 387.564 1677.2 377.768 1670.18 364.538C1653.45 332.976 1665.47 293.824 1697.03 277.091C1728.59 260.357 1767.74 272.378 1784.48 303.94ZM1735.99 350.567C1748.39 343.993 1753.11 328.612 1746.53 316.213C1739.96 303.814 1724.58 299.091 1712.18 305.665C1699.78 312.239 1695.06 327.62 1701.63 340.019C1708.21 352.419 1723.59 357.141 1735.99 350.567Z" fill="#29CC54"/>
<path d="M1543.84 181.988C1540.81 179.255 1542.15 174.238 1546.15 173.386L1659.19 149.243C1664.05 148.205 1667.29 154.126 1663.79 157.654L1625.15 196.596C1623.9 197.854 1623.42 199.679 1623.87 201.392L1637.85 254.433C1639.12 259.239 1633.36 262.75 1629.67 259.421L1543.84 181.988Z" fill="#FF0B53"/>
<path fill-rule="evenodd" clip-rule="evenodd" d="M1624.64 197.147C1624.67 197.118 1624.7 197.089 1624.73 197.061L1664.27 157.408C1667.8 153.868 1664.66 148.069 1659.78 149.116L1546.36 173.431C1545.33 173.652 1544.47 174.142 1543.81 174.793L1624.64 197.147Z" fill="#E00042"/>
<path d="M235.383 673.329C239.265 672.071 242.937 675.743 241.68 679.626L208.745 781.325C207.213 786.053 200.469 785.893 199.164 781.097L185.953 732.567C185.488 730.857 184.152 729.521 182.442 729.055L133.911 715.845C129.115 714.54 128.955 707.795 133.684 706.264L235.383 673.329Z" fill="#4F4F4F"/>
<path fill-rule="evenodd" clip-rule="evenodd" d="M186.68 731.634C186.709 731.728 186.734 731.823 186.758 731.92L198.738 781.43C199.923 786.326 206.574 786.631 208.178 781.864L242.678 679.3L186.68 731.634Z" fill="#646464"/>
<rect x="1686" y="582.089" width="65.3141" height="24.8943" rx="12.4472" transform="rotate(-75 1686 582.089)" fill="#F2994A"/>
<path d="M1850.64 329.37C1849.95 328.849 1850.57 327.764 1851.37 328.107L1858.08 330.985C1866.73 334.7 1876.8 332.001 1882.44 324.456L1886.81 318.613C1887.33 317.916 1888.41 318.543 1888.07 319.342L1885.19 326.044C1881.48 334.699 1884.18 344.772 1891.72 350.409L1897.56 354.775C1898.26 355.296 1897.63 356.381 1896.83 356.038L1890.13 353.161C1881.48 349.445 1871.4 352.144 1865.77 359.689L1861.4 365.532C1860.88 366.229 1859.8 365.602 1860.14 364.803L1863.02 358.101C1866.73 349.446 1864.03 339.373 1856.49 333.736L1850.64 329.37Z" fill="#F24A4A"/>
<path fill-rule="evenodd" clip-rule="evenodd" d="M1851.8 882.89C1820.53 864.988 1780.67 875.687 1762.68 906.859C1780.71 875.617 1769.96 835.64 1738.66 817.569C1769.93 835.472 1809.79 824.773 1827.79 793.6C1809.75 824.843 1820.5 864.819 1851.8 882.89Z" fill="#4F4F4F"/>
<path fill-rule="evenodd" clip-rule="evenodd" d="M1902.42 971.424C1885.67 981.174 1879.93 1002.61 1889.61 1019.38C1879.91 1002.58 1858.4 996.835 1841.57 1006.55C1858.31 996.804 1864.05 975.363 1854.37 958.598C1864.07 975.4 1885.58 981.143 1902.42 971.424Z" fill="#4F4F4F" fill-opacity="0.1"/>
<rect x="77" y="990.594" width="104.651" height="11.5909" rx="5.79545" transform="rotate(-16.4266 77 990.594)" fill="#1E1E1E"/>
<rect x="83.2275" y="1011.72" width="104.651" height="10.4318" rx="5.21591" transform="rotate(-16.4266 83.2275 1011.72)" fill="#1E1E1E"/>
<rect x="89.1279" y="1031.73" width="104.651" height="11.5909" rx="5.79545" transform="rotate(-16.4266 89.1279 1031.73)" fill="#1E1E1E"/>
<circle cx="1760.91" cy="69.5047" r="9.45456" transform="rotate(14.0384 1760.91 69.5047)" fill="#1E1E1E"/>
<ellipse cx="1791.05" cy="77.0397" rx="9.90478" ry="9.45456" transform="rotate(14.0384 1791.05 77.0397)" fill="#1E1E1E"/>
<circle cx="1821.19" cy="84.576" r="9.45456" transform="rotate(14.0384 1821.19 84.576)" fill="#1E1E1E"/>
<g filter="url(#filter1_f_11_2)">
<path d="M240.296 1283.97L10.3256 1090.79L7.07303 558.311L-179.227 353.15" stroke="url(#paint1_linear_11_2)" stroke-opacity="0.2" stroke-width="238"/>
</g>
</g>
<defs>
<filter id="filter0_f_11_2" x="1227.68" y="-695.848" width="1384.16" height="1901.94" filterUnits="userSpaceOnUse" color-interpolation-filters="sRGB">
<feFlood flood-opacity="0" result="BackgroundImageFix"/>
<feBlend mode="normal" in="SourceGraphic" in2="BackgroundImageFix" result="shape"/>
<feGaussianBlur stdDeviation="200" result="effect1_foregroundBlur_11_2"/>
</filter>
<filter id="filter1_f_11_2" x="-667.324" y="-126.848" width="1384.16" height="1901.94" filterUnits="userSpaceOnUse" color-interpolation-filters="sRGB">
<feFlood flood-opacity="0" result="BackgroundImageFix"/>
<feBlend mode="normal" in="SourceGraphic" in2="BackgroundImageFix" result="shape"/>
<feGaussianBlur stdDeviation="200" result="effect1_foregroundBlur_11_2"/>
</filter>
<linearGradient id="paint0_linear_11_2" x1="2114.91" y1="724.165" x2="1695.38" y2="-206.659" gradientUnits="userSpaceOnUse">
<stop offset="0.04" stop-color="#2F80ED" stop-opacity="0.3"/>
<stop offset="0.385" stop-color="#05F2F2" stop-opacity="0.8"/>
<stop offset="1"/>
</linearGradient>
<linearGradient id="paint1_linear_11_2" x1="219.905" y1="1293.16" x2="-199.618" y2="362.341" gradientUnits="userSpaceOnUse">
<stop offset="0.04" stop-color="#2F80ED" stop-opacity="0.3"/>
<stop offset="0.385" stop-color="#05F2F2" stop-opacity="0.8"/>
<stop offset="1"/>
</linearGradient>
<clipPath id="clip0_11_2">
<rect width="1920" height="1080" fill="white"/>
</clipPath>
</defs>
</svg>
